<svg width="50" height="25" viewBox="0 0 50 25" fill="none" xmlns="http://www.w3.org/2000/svg">
<path d="M14.9956 0.00695312C18.802 0.00695312 22.6085 -0.0089204 26.4149 0.0213811C27.1811 0.0271528 27.9632 0.13826 28.7063 0.327283C30.2545 0.721202 31.3151 1.75578 32.1852 3.0674C33.6079 5.21303 33.7406 7.57078 33.442 10.0064C33.2169 11.839 32.3944 13.4089 31.0871 14.6916C30.0467 15.7118 28.7654 16.276 27.2864 16.3236C26.6169 16.3452 25.9459 16.351 25.275 16.3813C25.1509 16.3871 24.9417 16.4477 24.9258 16.5169C24.8984 16.6367 24.9561 16.8171 25.0427 16.9137C26.2706 18.2787 27.5144 19.6293 28.7438 20.9943C29.5951 21.938 30.4306 22.8961 31.266 23.8542C31.3324 23.9307 31.3973 24.0865 31.3627 24.1543C31.3165 24.2467 31.1794 24.3087 31.0683 24.3477C30.9745 24.3794 30.862 24.3621 30.7581 24.3621C28.699 24.3636 26.6385 24.3549 24.5795 24.3693C24.1019 24.3722 23.7397 24.2178 23.4252 23.86C21.7095 21.9048 19.9852 19.9569 18.2566 18.0118C16.8512 16.4303 15.4357 14.8576 14.0259 13.2804C13.4242 12.608 12.8182 11.9414 12.2309 11.2575C12.1328 11.142 12.0563 10.9371 12.091 10.8058C12.114 10.7178 12.3507 10.6356 12.4921 10.6356C13.5324 10.6327 14.5728 10.6586 15.6131 10.6615C18.4701 10.6702 21.3271 10.6745 24.1841 10.6731C24.8897 10.6731 25.5939 10.6428 26.2995 10.6283C27.0152 10.6139 27.5057 10.2561 27.7034 9.56346C27.9632 8.65153 27.9343 7.72805 27.7005 6.81901C27.5144 6.10043 26.995 5.75702 26.1869 5.75702C20.6677 5.75557 15.1485 5.75702 9.62932 5.75702C9.1546 5.75702 8.67843 5.72527 8.2066 5.76423C7.57748 5.81618 7.14172 5.55789 6.73914 5.09471C5.41742 3.5782 4.06395 2.0891 2.73069 0.582682C2.64123 0.481677 2.55898 0.317182 2.57485 0.195976C2.58495 0.125273 2.78985 0.0545702 2.91538 0.0300405C3.08421 -0.00170392 3.26024 0.00406665 3.4334 0.00406665C7.28601 0.00262372 11.1386 0.00262451 14.9927 0.00262451C14.9956 0.00551037 14.9956 0.00695312 14.9956 0.00695312Z" fill="#F4F4F4"/>
<path d="M39.3824 18.6121C42.1601 18.6121 44.9363 18.6121 47.7139 18.6121C47.8409 18.6121 47.9693 18.6121 48.0948 18.6294C48.3574 18.6683 48.5147 18.8126 48.5147 19.0926C48.5162 20.713 48.5147 22.3319 48.5176 23.9523C48.5176 24.1774 48.4065 24.2986 48.1915 24.3261C48.0429 24.3448 47.8928 24.3578 47.7428 24.3578C42.8368 24.3592 37.9309 24.3564 33.0249 24.365C32.5083 24.3665 32.1418 24.1803 31.8042 23.7792C30.8966 22.7013 29.9471 21.6566 29.0107 20.6033C28.0194 19.4894 27.0194 18.3826 26.0339 17.2629C25.9488 17.1663 25.8766 16.9686 25.9199 16.8705C25.9632 16.7695 26.1522 16.6858 26.2836 16.6757C26.8708 16.6353 27.4639 16.6555 28.0497 16.5963C29.2473 16.4751 30.3035 15.9874 31.1953 15.188C32.7609 13.7855 33.7031 12.0367 33.9902 9.94585C34.0465 9.53317 34.1966 9.38311 34.628 9.36147C35.3206 9.32828 36.0147 9.30086 36.7087 9.29798C38.6523 9.28932 40.5959 9.29653 42.541 9.29365C43.3563 9.2922 43.7762 8.96033 43.8901 8.15662C43.9522 7.72663 43.9551 7.27644 43.906 6.84356C43.8223 6.09612 43.3996 5.7527 42.6391 5.7527C40.1284 5.75126 37.6177 5.75415 35.107 5.75559C34.9685 5.75559 34.83 5.75703 34.69 5.75559C33.9686 5.74837 33.856 5.64304 33.6396 4.95909C33.1403 3.38774 32.2703 2.05881 30.976 1.02567C30.6975 0.803464 30.3829 0.625984 30.0943 0.415317C30.0279 0.3677 29.9428 0.23928 29.9645 0.198878C30.0034 0.122403 30.1073 0.0589139 30.1968 0.0343841C30.3165 0.00119682 30.4493 0.0040817 30.5748 0.0040817C34.5674 0.00119585 38.5585 -0.00169062 42.5511 0.00119523C44.1051 0.00263816 45.5596 0.346056 46.8063 1.33302C48.1627 2.408 49.0226 3.80042 49.4108 5.48288C49.8451 7.3659 49.7657 9.22439 48.9274 10.9775C47.7471 13.4449 45.8251 14.9254 43.0114 14.9874C40.7215 15.0379 38.4287 14.986 36.1387 15.0091C34.9353 15.0221 33.7262 15.0841 32.5848 15.5257C31.367 15.9975 30.7292 16.9642 30.419 18.1835C30.3555 18.436 30.4854 18.5847 30.7451 18.6034C30.8951 18.6135 31.0452 18.6121 31.1967 18.6121C33.9282 18.6121 36.6582 18.6121 39.3897 18.6121C39.3824 18.6135 39.3824 18.6121 39.3824 18.6121Z" fill="#F4F4F4"/>
<path d="M1.59086 24.303C1.17386 24.303 0.756849 24.3159 0.342729 24.2943C0.224409 24.2885 0.0700161 24.2121 0.00797023 24.1168C-0.028103 24.062 0.0656871 23.8874 0.140719 23.8008C1.69764 22.0318 3.25456 20.2613 4.8259 18.5024C6.02642 17.1576 7.25146 15.8344 8.45486 14.4939C9.25713 13.5993 10.0522 12.6989 10.8357 11.787C11.4518 11.0699 11.612 11.0612 12.2122 11.7812C12.4345 12.0467 12.6812 12.2935 12.8991 12.5633C13.1501 12.875 13.1458 13.0597 12.8803 13.3598C11.8169 14.5632 10.7462 15.7608 9.67991 16.9628C7.72474 19.1676 5.76236 21.3652 3.82307 23.5844C3.38153 24.088 2.92124 24.4271 2.21565 24.3058C2.01364 24.2712 1.80009 24.3001 1.5923 24.3001C1.59086 24.3015 1.59086 24.303 1.59086 24.303Z" fill="#71706F"/>
<path d="M12.2886 17.8386C13.2741 17.8285 13.2741 17.8285 13.2799 18.8025C13.2842 19.7794 13.2842 19.7794 12.3031 19.7794C11.3291 19.7794 11.3291 19.7794 11.3276 18.8155C11.3276 17.8473 11.3276 17.8473 12.2886 17.8386Z" fill="#71706F"/>
<path d="M15.7171 21.3118C15.72 22.2742 15.72 22.2742 14.7576 22.2829C13.7836 22.2915 13.7778 22.2858 13.775 21.3075C13.7721 20.3465 13.7721 20.345 14.7302 20.3421C15.7142 20.3393 15.7142 20.3393 15.7171 21.3118Z" fill="#71706F"/>
<path d="M11.3291 21.3104C11.3248 20.3451 11.3248 20.3451 12.2786 20.3436C13.2757 20.3422 13.2757 20.3422 13.2757 21.3306C13.2757 22.2439 13.2338 22.2844 12.3175 22.2815C11.332 22.2771 11.332 22.2771 11.3291 21.3104Z" fill="#71706F"/>
<path d="M15.7199 18.8718C15.7171 19.7794 15.7171 19.7794 14.8051 19.7794C14.7705 19.7794 14.7359 19.7794 14.7012 19.7794C13.8196 19.7823 13.7806 19.7433 13.772 18.8415C13.7619 17.8459 13.7691 17.8387 14.7633 17.8387C15.7228 17.8387 15.7228 17.8387 15.7199 18.8718Z" fill="#71706F"/>
</svg>
